<svg version="1.1" xmlns="http://www.w3.org/2000/svg" xmlns:xlink="http://www.w3.org/1999/xlink" width="67.60566" height="70.87013" viewBox="0,0,67.60566,70.87013"><g transform="translate(-206.19717,-144.65065)"><g data-paper-data="{&quot;isPaintingLayer&quot;:true}" fill-rule="evenodd" stroke-miterlimit="10" stroke-dasharray="" stroke-dashoffset="0" style="mix-blend-mode: normal"><g><path d="M229.25224,194.68262c0.56528,0.28264 1.7665,0.91858 0.07066,3.32103c-1.69584,2.40244 -6.57139,2.89706 -7.13667,2.89706c-2.19046,0.07066 -4.87555,0.07066 -7.84327,-0.91858c-8.62053,-2.8264 -8.69119,-12.08288 -5.93545,-13.56674c2.68508,-1.48386 3.88631,4.23961 7.77261,7.70195c1.69584,1.55452 3.74499,2.1198 5.44083,2.4731c2.40244,0.42396 6.99535,-2.26112 7.63129,-1.90782z" fill="#ffab19" stroke="#001026" stroke-width="1.2" stroke-linecap="round" stroke-linejoin="round"/><path d="M211.72853,188.95915c1.13056,1.90782 3.32103,4.59291 3.32103,4.59291c0,0 -2.61442,-0.63594 -4.09829,0.56528c-1.20122,0.91858 -0.91858,2.4731 -0.77726,2.96772c-0.91858,-0.91858 -2.04914,-2.19046 -2.75574,-4.66357c-0.7066,-2.4731 0,-5.44083 1.4132,-5.86479c1.4132,-0.28264 1.7665,0.77726 2.89706,2.40244z" fill="#ffffff" stroke="none" stroke-width="1" stroke-linecap="butt" stroke-linejoin="miter"/></g><path d="M232.78524,202.03127c-1.27188,0.84792 -5.65281,3.95697 -11.23496,5.72347l-0.28264,0.07066c-0.28264,0.07066 -0.42396,0.42396 -0.28264,0.7066c1.20122,1.69584 3.39169,5.08753 -0.49462,6.28875c-3.74499,1.20122 -10.74034,-8.76185 -7.77261,-11.37628c1.34254,-0.98924 2.54376,-0.49462 3.17971,-0.21198c0.3533,0.14132 0.7066,0.14132 1.0599,0.07066c0.84792,-0.28264 2.40244,-0.84792 3.60367,-1.48386c3.03838,-1.55452 3.74499,-2.19046 5.15819,-3.25037c1.4132,-1.0599 4.66357,-3.67433 7.27799,-1.4132c2.26112,1.90782 0.98924,4.02763 -0.21198,4.87555z" fill="#ffab19" stroke="#001026" stroke-width="1.2" stroke-linecap="round" stroke-linejoin="round"/><path d="M244.0202,187.33397c0.3533,0.28264 4.66357,5.37017 6.07677,4.09829c1.69584,-1.48386 4.02763,-4.38093 6.57139,-2.04914c2.54376,2.33178 -2.26112,6.28875 -4.31027,7.34865c-4.87555,2.19046 -8.83251,-1.97848 -9.68044,-3.10905c-0.84792,-1.13056 -2.33178,-3.03838 -2.33178,-4.87555c0.07066,-1.97848 2.4731,-2.4731 3.67433,-1.4132z" fill="#ffab19" stroke="#001026" stroke-width="1.2" stroke-linecap="round" stroke-linejoin="round"/><g><path d="M244.09086,203.79777c1.48386,1.34254 4.73423,4.09829 4.73423,4.09829c0,0 10.1044,-1.7665 10.1044,3.32103c0,3.03838 -5.08753,3.74499 -11.94156,3.10905c-0.42396,-0.07066 -0.84792,-0.21198 -1.20122,-0.49462c-1.55452,-1.34254 -6.00611,-5.29951 -8.83251,-8.05525c-4.16895,-4.09829 -7.63129,-6.78337 -7.63129,-6.78337c-6.00611,-5.86479 -1.13056,-8.33789 0.77726,-11.72958c1.7665,-2.89706 2.54376,-2.33178 6.78337,-1.48386c2.40244,0.3533 3.81565,0.56528 5.37017,0.49462c2.33178,-0.07066 1.90782,3.32103 1.27188,5.08753c0,0 -0.98924,2.61442 -1.90782,3.95697c-1.13056,1.62518 -1.97848,2.68508 -2.8264,3.32103z" fill="#ffab19" stroke="#001026" stroke-width="1.2" stroke-linecap="round" stroke-linejoin="round"/><path d="M238.15541,198.56893c0,0 -1.0599,-0.84792 -2.19046,-1.90782c-1.4132,-1.27188 -2.8264,-2.33178 -1.4132,-4.52225c1.27188,-1.69584 2.4731,-3.95697 5.65281,-1.90782c3.03838,1.90782 1.69584,3.67433 1.69584,3.67433c-1.55452,3.17971 -3.74499,4.66357 -3.74499,4.66357z" fill="#ffffff" stroke="none" stroke-width="1" stroke-linecap="butt" stroke-linejoin="miter"/></g><path d="M227.48573,192.7748c1.55452,1.97848 3.95697,4.45159 0.91858,6.50073c-4.16895,2.33178 -7.63129,-4.73423 -8.33789,-7.20733c-0.63594,-2.19046 1.20122,-3.60367 2.75574,-4.80489c3.03838,-2.19046 5.58215,-4.16895 8.40855,-3.10905c3.53301,1.27188 0.98924,4.09829 -0.77726,5.37017c-1.0599,0.77726 -2.1198,1.62518 -2.89706,2.1198c-0.21198,0.3533 -0.28264,0.77726 -0.07066,1.13056z" fill="#ffab19" stroke="#001026" stroke-width="1.2" stroke-linecap="round" stroke-linejoin="round"/><g><path d="M249.74367,145.14988c0.21198,-0.14132 0.56528,-0.07066 0.63594,0.21198l1.83716,7.56063c0,0 4.52225,3.32103 5.86479,5.65281c2.26112,3.88631 2.33178,7.06601 2.33178,7.06601c0,0 5.01687,1.48386 5.86479,5.51149c0.84792,4.02763 -2.26112,11.65892 -15.54523,14.27334c-13.2841,2.61442 -23.95378,-0.98924 -28.97065,-9.04449c-5.01687,-8.05525 2.89706,-17.66503 2.4731,-17.09975l-1.48386,-12.64816c-0.07066,-0.28264 0.28264,-0.49462 0.56528,-0.3533l8.54987,5.58215c0,0 3.17971,-1.20122 6.50073,-1.34254c1.97848,-0.14132 3.67433,0 5.29951,0.28264z" fill="#ffab19" stroke="#001026" stroke-width="1.2" stroke-linecap="butt" stroke-linejoin="miter"/><path d="M260.20137,165.92395c0,0 4.87555,1.27188 5.72347,5.29951c0.84792,4.02763 -2.54376,11.30562 -15.68655,13.84938c-17.09975,3.53301 -25.22566,-6.64205 -20.49143,-14.13202c4.73423,-7.56063 12.86014,-1.13056 18.79559,-1.55452c5.08753,-0.3533 5.65281,-4.80489 11.65892,-3.46235z" fill="#ffffff" stroke="none" stroke-width="1" stroke-linecap="butt" stroke-linejoin="miter"/><path d="M237.94343,173.48459c0,-0.28264 0.28264,-0.49462 0.56528,-0.42396c1.34254,0.49462 5.15819,1.62518 9.3978,1.90782c3.81565,0.21198 6.07677,0 7.13667,-0.21198c0.3533,-0.07066 0.63594,0.28264 0.49462,0.63594c-0.63594,1.90782 -3.32103,7.20733 -10.74034,6.78337c-6.43007,-0.7066 -7.06601,-5.22885 -6.85403,-8.69119z" fill="#ffffff" stroke="#001026" stroke-width="1.2" stroke-linecap="round" stroke-linejoin="round"/><path d="M273.20283,166.70121c-3.32103,2.68508 -8.40855,2.75574 -8.40855,2.75574" fill="none" stroke="#001026" stroke-width="1.2" stroke-linecap="round" stroke-linejoin="round"/><path d="M272.28425,174.61515c-4.45159,0.3533 -7.20733,-0.98924 -7.20733,-0.98924" fill="none" stroke="#001026" stroke-width="1.2" stroke-linecap="round" stroke-linejoin="round"/><path d="M248.25981,167.54914c1.48386,0 3.03838,0.14132 3.10905,0.63594c0.07066,0.98924 -0.98924,2.96772 -2.1198,3.03838c-1.27188,0.14132 -4.23961,-1.62518 -4.23961,-2.75574c-0.07066,-0.84792 1.83716,-0.91858 3.25037,-0.91858z" fill="#001026" stroke="#001026" stroke-width="1.2" stroke-linecap="round" stroke-linejoin="round"/><path d="M216.46276,166.48923c0,0 6.07677,1.97848 8.54987,4.16895" fill="none" stroke="#001026" stroke-width="1.2" stroke-linecap="round" stroke-linejoin="round"/><path d="M225.22461,173.13128c-3.03838,1.20122 -8.26723,0.42396 -8.26723,0.42396" fill="none" stroke="#001026" stroke-width="1.2" stroke-linecap="round" stroke-linejoin="round"/><g><path d="M256.5977,159.2819c2.04914,3.17971 2.1198,6.78337 0.14132,8.05525c-1.97848,1.27188 -5.22885,-0.21198 -7.34865,-3.39169c-2.04914,-3.17971 -2.1198,-6.78337 -0.14132,-8.05525c1.97848,-1.34254 5.29951,0.21198 7.34865,3.39169z" fill="#ffffff" stroke="#001026" stroke-width="1.2" stroke-linecap="round" stroke-linejoin="round"/><path d="M256.31506,163.30953c0,0.77726 -0.56528,1.4132 -1.27188,1.4132c-0.7066,0 -1.27188,-0.63594 -1.27188,-1.4132c0,-0.77726 0.56528,-1.4132 1.27188,-1.4132c0.7066,0 1.27188,0.63594 1.27188,1.4132" fill="#001026" stroke="none" stroke-width="1" stroke-linecap="butt" stroke-linejoin="miter"/></g><g><path d="M239.07399,161.26039c2.1198,3.10905 1.97848,6.92469 0.07066,8.26723c-2.33178,1.34254 -5.44083,0.3533 -7.56063,-2.75574c-2.19046,-3.10905 -2.33178,-7.13667 -0.14132,-8.69119c2.19046,-1.62518 5.51149,0.07066 7.63129,3.17971z" fill="#ffffff" stroke="#001026" stroke-width="1.2" stroke-linecap="round" stroke-linejoin="round"/><path d="M238.65003,165.35867c0,0.77726 -0.56528,1.4132 -1.27188,1.4132c-0.7066,0 -1.27188,-0.63594 -1.27188,-1.4132c0,-0.77726 0.56528,-1.4132 1.27188,-1.4132c0.7066,0.07066 1.27188,0.63594 1.27188,1.4132" fill="#001026" stroke="none" stroke-width="1" stroke-linecap="butt" stroke-linejoin="miter"/></g></g></g></g></svg>